<?xml version="1.0" encoding="UTF-8"?>
<svg version="1.1" xmlns="http://www.w3.org/2000/svg" width="96" height="96">
<path d="M0 0 C1.91015625 0.23046875 1.91015625 0.23046875 3.91015625 2.23046875 C3.91015625 3.55046875 3.91015625 4.87046875 3.91015625 6.23046875 C6.55015625 6.23046875 9.19015625 6.23046875 11.91015625 6.23046875 C12.40515625 7.71546875 12.40515625 7.71546875 12.91015625 9.23046875 C13.90917969 9.21886719 14.90820312 9.20726562 15.9375 9.1953125 C17.22785156 9.18628906 18.51820312 9.17726563 19.84765625 9.16796875 C21.13542969 9.15636719 22.42320313 9.14476562 23.75 9.1328125 C26.91015625 9.23046875 26.91015625 9.23046875 27.91015625 10.23046875 C28.00959597 12.31122284 28.03815221 14.39538723 28.03955078 16.47851562 C28.0413031 17.13054459 28.04305542 17.78257355 28.04486084 18.45436096 C28.04927829 20.61934028 28.04634176 22.78423854 28.04296875 24.94921875 C28.04364182 26.44755062 28.04461187 27.94588238 28.04586792 29.44421387 C28.04734475 32.58830808 28.04519083 35.73237392 28.04052734 38.87646484 C28.03483005 42.91533414 28.03810914 46.95413699 28.04409981 50.99300385 C28.04770583 54.08811955 28.04656664 57.1832194 28.04397202 60.27833557 C28.04330286 61.7679495 28.04413077 63.25756485 28.04645157 64.74717712 C28.04897878 66.8256311 28.04513658 68.90397606 28.03955078 70.98242188 C28.03875519 72.16743286 28.03795959 73.35244385 28.03713989 74.57336426 C27.91015625 77.23046875 27.91015625 77.23046875 26.91015625 78.23046875 C25.10506252 78.32946436 23.29608697 78.35846026 21.48828125 78.35986328 C20.33038086 78.36301544 19.17248047 78.3661676 17.97949219 78.36941528 C16.0889209 78.36637894 16.0889209 78.36637894 14.16015625 78.36328125 C12.87657227 78.36423798 11.59298828 78.3651947 10.27050781 78.36618042 C7.55011801 78.36765706 4.829761 78.36550394 2.109375 78.36083984 C-1.38469044 78.35514256 -4.87867908 78.35842174 -8.3727417 78.36441231 C-11.69511528 78.36888629 -15.01746798 78.3657576 -18.33984375 78.36328125 C-19.60022461 78.36530548 -20.86060547 78.36732971 -22.15917969 78.36941528 C-23.31708008 78.36626312 -24.47498047 78.36311096 -25.66796875 78.35986328 C-26.6930957 78.35906769 -27.71822266 78.35827209 -28.77441406 78.35745239 C-31.08984375 78.23046875 -31.08984375 78.23046875 -32.08984375 77.23046875 C-32.18928347 75.14971466 -32.21783971 73.06555027 -32.21923828 70.98242188 C-32.2209906 70.33039291 -32.22274292 69.67836395 -32.22454834 69.00657654 C-32.22896579 66.84159722 -32.22602926 64.67669896 -32.22265625 62.51171875 C-32.22332932 61.01338688 -32.22429937 59.51505512 -32.22555542 58.01672363 C-32.22703225 54.87262942 -32.22487833 51.72856358 -32.22021484 48.58447266 C-32.21451755 44.54560336 -32.21779664 40.50680051 -32.22378731 36.46793365 C-32.22739333 33.37281795 -32.22625414 30.2777181 -32.22365952 27.18260193 C-32.22299036 25.692988 -32.22381827 24.20337265 -32.22613907 22.71376038 C-32.22866628 20.6353064 -32.22482408 18.55696144 -32.21923828 16.47851562 C-32.21844269 15.29350464 -32.21764709 14.10849365 -32.21682739 12.88757324 C-32.08984375 10.23046875 -32.08984375 10.23046875 -31.08984375 9.23046875 C-28.7367082 9.15775134 -26.38150707 9.14676007 -24.02734375 9.16796875 C-22.73699219 9.17699219 -21.44664063 9.18601562 -20.1171875 9.1953125 C-19.11816406 9.20691406 -18.11914062 9.21851563 -17.08984375 9.23046875 C-16.75984375 8.24046875 -16.42984375 7.25046875 -16.08984375 6.23046875 C-13.44984375 6.23046875 -10.80984375 6.23046875 -8.08984375 6.23046875 C-7.94546875 5.42609375 -7.80109375 4.62171875 -7.65234375 3.79296875 C-6.61942752 -0.91253853 -4.45594959 0.08895725 0 0 Z M-4.08984375 4.23046875 C-4.08984375 4.89046875 -4.08984375 5.55046875 -4.08984375 6.23046875 C-2.76984375 6.23046875 -1.44984375 6.23046875 -0.08984375 6.23046875 C-0.08984375 5.57046875 -0.08984375 4.91046875 -0.08984375 4.23046875 C-1.40984375 4.23046875 -2.72984375 4.23046875 -4.08984375 4.23046875 Z M-14.08984375 11.23046875 C-14.08984375 12.55046875 -14.08984375 13.87046875 -14.08984375 15.23046875 C-11.11984375 15.23046875 -8.14984375 15.23046875 -5.08984375 15.23046875 C-5.08984375 16.22046875 -5.08984375 17.21046875 -5.08984375 18.23046875 C-3.10984375 18.23046875 -1.12984375 18.23046875 0.91015625 18.23046875 C0.91015625 17.24046875 0.91015625 16.25046875 0.91015625 15.23046875 C3.88015625 15.23046875 6.85015625 15.23046875 9.91015625 15.23046875 C9.53111417 11.93970879 9.53111417 11.93970879 7.91015625 9.23046875 C4.60498691 8.98010901 1.28619584 9.04524923 -2.02734375 9.04296875 C-2.95998047 9.03072266 -3.89261719 9.01847656 -4.85351562 9.00585938 C-5.74490234 9.00392578 -6.63628906 9.00199219 -7.5546875 9 C-8.78626587 8.99383667 -8.78626587 8.99383667 -10.04272461 8.98754883 C-12.31501599 9.04306995 -12.31501599 9.04306995 -14.08984375 11.23046875 Z M-29.08984375 14.23046875 C-29.39684602 16.80537547 -29.39684602 16.80537547 -29.34863281 19.84179688 C-29.35493713 21.01641479 -29.36124146 22.19103271 -29.36773682 23.40124512 C-29.36368835 24.67520142 -29.35963989 25.94915771 -29.35546875 27.26171875 C-29.3573822 28.56371216 -29.35929565 29.86570557 -29.36126709 31.20715332 C-29.36421766 33.96448503 -29.35992299 36.72168724 -29.35058594 39.47900391 C-29.33919128 43.01673948 -29.34575113 46.55417162 -29.35773087 50.09189606 C-29.36668769 53.46102809 -29.36042015 56.83007809 -29.35546875 60.19921875 C-29.35951721 61.47317505 -29.36356567 62.74713135 -29.36773682 64.05969238 C-29.3614325 65.2343103 -29.35512817 66.40892822 -29.34863281 67.61914062 C-29.34704163 68.65679565 -29.34545044 69.69445068 -29.34381104 70.7635498 C-29.33383397 73.40712908 -29.33383397 73.40712908 -27.08984375 75.23046875 C-24.88113897 75.53639191 -24.88113897 75.53639191 -22.3046875 75.48925781 C-20.81304077 75.49871429 -20.81304077 75.49871429 -19.29125977 75.50836182 C-17.67562134 75.50228912 -17.67562134 75.50228912 -16.02734375 75.49609375 C-14.92511475 75.4980072 -13.82288574 75.49992065 -12.68725586 75.50189209 C-10.35367607 75.50325487 -8.02008872 75.49955197 -5.68652344 75.49121094 C-2.10464528 75.48051296 1.47673128 75.49110333 5.05859375 75.50390625 C7.3216157 75.50258467 9.58463733 75.50002232 11.84765625 75.49609375 C12.92474854 75.50014221 14.00184082 75.50419067 15.11157227 75.50836182 C16.10600342 75.5020575 17.10043457 75.49575317 18.125 75.48925781 C19.44165649 75.48687103 19.44165649 75.48687103 20.78491211 75.48443604 C23.12598607 75.42677817 23.12598607 75.42677817 24.91015625 73.23046875 C25.21715852 70.65556203 25.21715852 70.65556203 25.16894531 67.61914062 C25.17524963 66.44452271 25.18155396 65.26990479 25.18804932 64.05969238 C25.18400085 62.78573608 25.17995239 61.51177979 25.17578125 60.19921875 C25.1776947 58.89722534 25.17960815 57.59523193 25.18157959 56.25378418 C25.18453016 53.49645247 25.18023549 50.73925026 25.17089844 47.98193359 C25.15950378 44.44419802 25.16606363 40.90676588 25.17804337 37.36904144 C25.18700019 33.99990941 25.18073265 30.63085941 25.17578125 27.26171875 C25.17982971 25.98776245 25.18387817 24.71380615 25.18804932 23.40124512 C25.181745 22.2266272 25.17544067 21.05200928 25.16894531 19.84179688 C25.16735413 18.80414185 25.16576294 17.76648682 25.16412354 16.6973877 C25.15414647 14.05380842 25.15414647 14.05380842 22.91015625 12.23046875 C20.47002676 11.98759386 20.47002676 11.98759386 17.78515625 12.10546875 C16.87507813 12.12351562 15.965 12.1415625 15.02734375 12.16015625 C14.32867187 12.18335938 13.63 12.2065625 12.91015625 12.23046875 C12.91015625 13.22046875 12.91015625 14.21046875 12.91015625 15.23046875 C15.88015625 15.23046875 18.85015625 15.23046875 21.91015625 15.23046875 C21.58015625 32.39046875 21.25015625 49.55046875 20.91015625 67.23046875 C19.92015625 67.72546875 19.92015625 67.72546875 18.91015625 68.23046875 C18.91015625 69.55046875 18.91015625 70.87046875 18.91015625 72.23046875 C5.05015625 72.23046875 -8.80984375 72.23046875 -23.08984375 72.23046875 C-23.08984375 70.91046875 -23.08984375 69.59046875 -23.08984375 68.23046875 C-23.74984375 67.90046875 -24.40984375 67.57046875 -25.08984375 67.23046875 C-25.41984375 50.07046875 -25.74984375 32.91046875 -26.08984375 15.23046875 C-23.11984375 15.23046875 -20.14984375 15.23046875 -17.08984375 15.23046875 C-17.08984375 14.24046875 -17.08984375 13.25046875 -17.08984375 12.23046875 C-18.71448217 12.17651397 -20.33962916 12.1376968 -21.96484375 12.10546875 C-22.86976562 12.08226562 -23.7746875 12.0590625 -24.70703125 12.03515625 C-27.27791369 11.98722039 -27.27791369 11.98722039 -29.08984375 14.23046875 Z M-23.08984375 18.23046875 C-23.08984375 33.41046875 -23.08984375 48.59046875 -23.08984375 64.23046875 C-9.22984375 64.23046875 4.63015625 64.23046875 18.91015625 64.23046875 C18.91015625 49.05046875 18.91015625 33.87046875 18.91015625 18.23046875 C13.96015625 18.23046875 9.01015625 18.23046875 3.91015625 18.23046875 C3.91015625 19.22046875 3.91015625 20.21046875 3.91015625 21.23046875 C-0.04984375 21.23046875 -4.00984375 21.23046875 -8.08984375 21.23046875 C-8.08984375 20.24046875 -8.08984375 19.25046875 -8.08984375 18.23046875 C-13.03984375 18.23046875 -17.98984375 18.23046875 -23.08984375 18.23046875 Z " fill="#7A48FF" transform="translate(50.08984375,8.76953125)"/>
<path d="M0 0 C2.97 0 5.94 0 9 0 C9 2.97 9 5.94 9 9 C6.03 9 3.06 9 0 9 C0 6.03 0 3.06 0 0 Z " fill="#8B4BFF" transform="translate(54,54)"/>
<path d="M0 0 C2.97 0 5.94 0 9 0 C9 2.97 9 5.94 9 9 C6.03 9 3.06 9 0 9 C0 6.03 0 3.06 0 0 Z " fill="#6E58FF" transform="translate(54,39)"/>
<path d="M0 0 C5.94 0 11.88 0 18 0 C18 0.99 18 1.98 18 3 C12.06 3 6.12 3 0 3 C0 2.01 0 1.02 0 0 Z " fill="#8140FF" transform="translate(33,54)"/>
<path d="M0 0 C5.94 0 11.88 0 18 0 C18 0.99 18 1.98 18 3 C12.06 3 6.12 3 0 3 C0 2.01 0 1.02 0 0 Z " fill="#614EFF" transform="translate(33,39)"/>
<path d="M0 0 C4.95 0 9.9 0 15 0 C15 0.99 15 1.98 15 3 C10.05 3 5.1 3 0 3 C0 2.01 0 1.02 0 0 Z " fill="#8E3BFF" transform="translate(33,60)"/>
<path d="M0 0 C4.95 0 9.9 0 15 0 C15 0.99 15 1.98 15 3 C10.05 3 5.1 3 0 3 C0 2.01 0 1.02 0 0 Z " fill="#6E49FF" transform="translate(33,45)"/>
</svg>
